<?xml version="1.0" encoding="utf-8"?>
<!-- Generator: Adobe Illustrator 16.0.0, SVG Export Plug-In . SVG Version: 6.00 Build 0)  -->
<!DOCTYPE svg PUBLIC "-//W3C//DTD SVG 1.1//EN" "http://www.w3.org/Graphics/SVG/1.1/DTD/svg11.dtd">
<svg version="1.1" id="Layer_1" xmlns="http://www.w3.org/2000/svg" xmlns:xlink="http://www.w3.org/1999/xlink" x="0px" y="0px"
	 width="443.31px" height="630.53px" viewBox="161.767 20.793 443.31 630.53" enable-background="new 161.767 20.793 443.31 630.53"
	 xml:space="preserve">
<path opacity="0.5" fill="#527A3E" enable-background="new    " d="M242.202,49.07c1.074,2.922,2.144,6.129,3.277,9.523
	c4.572,13.702,10.262,30.753,20.303,39.579c2.855,2.51,6.003,4.744,9.336,7.11c11.334,8.046,24.18,17.165,32.164,41.737
	c10.057,30.949,30.64,65.873,55.063,93.422c22.721,25.627,32.257,33.576,45.457,44.576l2.535,2.114
	c1.923,1.607,3.771,3.047,5.4,4.318c10.996,8.573,16.014,12.486,3.859,34.997c-2.739,5.078-5.421,9.455-7.785,13.316
	c-9.624,15.719-14.926,24.375-5.837,47.653c3.338,8.55,5.573,16.759,7.734,24.698c5.148,18.909,9.59,35.232,26.867,44.544
	c13.828,7.45,30.975,9.01,47.352,9.97c16.037,0.94,31.94,1.277,47.271,1.006c3.137-0.056,7.016-0.672,11.122-1.323
	c11.399-1.81,24.318-3.859,31.136,3.829c8.955,10.101,6.035,18.398,1.616,30.957c-1.178,3.349-2.821,7.397-4.562,11.685
	c-4.807,11.841-10.79,26.579-10.834,36.229c-0.012,2.612-0.149,5.649-0.295,8.864c-0.606,13.477-1.362,30.248,5.354,39.373
	c5.17,7.021,11.911,11.408,17.858,15.277c3.729,2.426,7.25,4.717,9.841,7.333c6.277,6.334,9.482,11.778,8.449,22.389
	c-0.498,5.108-1.515,7.7-3.399,8.67c-2.097,1.08-4.953-0.101-8.601-2.206c-6.921-3.997-17.442-14.634-18.176-22.207
	c-0.607-6.286-6.474-11.984-20.921-20.326c-10.881-6.281-94.083-55.197-102.879-62.257c-10.258-8.233-22.684-17.362-37.059-22.643
	c-11.581-4.254-20.926-11.625-30.3-23.898c-0.703-0.921-1.455-1.869-2.23-2.847c-6.521-8.221-14.637-18.452-11.906-34.253
	c5.125-29.666-18.449-86.749-26.195-105.508c-0.79-1.912-1.415-3.424-1.787-4.377l-0.418-1.078
	c-4.14-10.688-15.144-39.087-45.31-54.679l-2.358-1.218c-26.57-13.72-26.57-13.72-37.868-37.736
	c-1.089-2.315-2.283-4.854-3.618-7.654c-7.128-14.942-13.605-30.506-19.868-45.557c-1.497-3.598-2.993-7.193-4.499-10.782
	c-12.213-29.117-23.931-57.56-33.783-81.543c-2.917-7.102-5.773-14.502-8.535-21.658c-2.442-6.327-4.967-12.869-7.536-19.212
	c-3.2-7.899-6.011-14.381-8.845-20.4c-0.632-1.341-1.348-2.688-2.106-4.113c-2.497-4.69-5.077-9.541-4.914-14.773
	c0.194-6.192,5.428-9.453,14.74-9.182c0.231,0.007,0.463,0.02,0.693,0.032c0.217,0.011,0.433,0.023,0.65,0.029
	c0.48,0.007,23.861,0.356,37.16,3.338C229.171,27.382,236.792,34.354,242.202,49.07L242.202,49.07z M214.738,25.445
	c-13.24-2.969-36.669-3.305-36.904-3.308h-0.01c-0.228-0.007-0.457-0.02-0.685-0.031c-0.22-0.011-0.441-0.023-0.662-0.03
	c-6.011-0.175-13.221,1.063-13.437,7.954c-0.152,4.895,2.348,9.594,4.766,14.138c0.766,1.44,1.49,2.8,2.134,4.169
	c2.844,6.04,5.664,12.542,8.873,20.464c2.573,6.353,5.1,12.9,7.544,19.23c2.76,7.15,5.614,14.545,8.526,21.634
	c9.85,23.98,21.567,52.42,33.78,81.535c1.505,3.59,3.001,7.186,4.499,10.784c6.257,15.037,12.727,30.586,19.841,45.5
	c1.337,2.8,2.532,5.342,3.622,7.66c11.115,23.626,11.115,23.627,37.302,37.148l2.359,1.22c30.62,15.83,41.724,44.536,45.91,55.347
	l0.417,1.074c0.367,0.939,0.989,2.447,1.776,4.354c7.78,18.842,31.46,76.179,26.272,106.207
	c-2.633,15.24,5.288,25.226,11.651,33.249c0.78,0.983,1.537,1.938,2.245,2.866c9.221,12.069,18.391,19.313,29.73,23.478
	c5.328,1.957,10.387,4.433,15.166,7.192c8.266,4.772,15.697,10.393,22.248,15.65c8.229,6.606,88.056,53.683,102.719,62.148
	c17.13,9.89,21.004,15.669,21.548,21.302c0.63,6.513,10.116,16.94,17.55,21.231c3.89,2.245,6.028,2.876,7.387,2.178
	c1.415-0.729,2.278-3.164,2.717-7.666c0.99-10.17-1.946-15.177-8.087-21.375c-2.496-2.519-5.963-4.775-9.633-7.162
	c-6.038-3.929-12.88-8.382-18.187-15.588c-6.983-9.486-6.216-26.506-5.6-40.182c0.144-3.202,0.28-6.227,0.293-8.813
	c0.045-9.894,6.078-24.758,10.927-36.701c1.733-4.272,3.372-8.308,4.54-11.627c4.422-12.567,7.09-20.152-1.37-29.695
	c-6.354-7.168-18.911-5.178-29.989-3.418c-4.15,0.658-8.071,1.279-11.297,1.338c-15.361,0.272-31.3-0.067-47.368-1.009
	c-16.52-0.967-33.822-2.546-47.88-10.118c-0.417-0.226-0.831-0.456-1.233-0.689c-16.733-9.659-21.152-25.899-26.253-44.637
	c-2.152-7.908-4.378-16.084-7.692-24.57c-9.318-23.863-3.576-33.24,5.938-48.775c2.355-3.85,5.026-8.211,7.752-13.257
	c11.644-21.568,7.513-24.789-3.525-33.396c-1.638-1.277-3.494-2.723-5.433-4.343l-2.534-2.114
	c-13.243-11.036-22.812-19.01-45.594-44.71c-24.532-27.671-45.214-62.764-55.32-93.87c-7.855-24.173-20.52-33.163-31.693-41.095
	c-3.36-2.386-6.534-4.64-9.439-7.192c-10.297-9.052-16.048-26.283-20.668-40.13c-1.13-3.385-2.197-6.581-3.265-9.486
	C235.706,35.072,228.585,28.55,214.738,25.445L214.738,25.445z M229.54,76.855l0.02,0.199c0.302,2.96,0.677,6.643,3.175,10.813
	c4.38,7.306,11.688,14.401,20.15,22.617c4.392,4.264,8.935,8.673,13.55,13.57c13.125,13.933,17.093,22.583,24.297,38.285l0.877,1.91
	c2.31,5.027,4.478,11.2,6.773,17.733c5.482,15.6,11.693,33.282,22.52,43.602c12.896,12.295,50.009,48.979,55.506,58.407
	c0.519,0.89,1.028,1.73,1.521,2.542c4.42,7.276,7.612,12.532,3.885,31.642l-0.188,0.962c-1.403,7.152-2.854,14.548-0.02,21.384
	c5.734,13.832,8.856,28.811,11.877,43.297c0.887,4.254,1.803,8.652,2.77,12.934c0.645,2.855,1.275,5.723,1.907,8.594
	c2.726,12.381,5.545,25.184,9.521,37.343l0.077,0.235c0.53,1.627,1.08,3.311,1.856,4.827c6.214,12.152,17.231,22.023,29.476,26.405
	c11.491,4.111,51.401,5.653,72.842,6.482c3.246,0.125,6.099,0.235,8.404,0.336c18.257,0.803,34.92,2.545,38.229,14.902
	c3.614,13.504,3.052,24.235-1.771,33.772c-2.21,4.369-3.825,9.154-5.386,13.78c-0.588,1.738-1.194,3.535-1.822,5.28
	c-0.302,0.839-0.631,1.858-0.979,2.938c-1.845,5.722-4.37,13.559-9.209,15.615c-2.474,1.053-6.566,1.612-12.167,1.665
	c-4.53,0.043-9.209-1.462-13.92-4.471c-5.686-3.637-14.688-8.65-24.217-13.956c-5.977-3.329-12.073-6.725-17.651-9.946
	c-3.891-2.245-7.526-4.404-10.696-6.398c-2.852-1.795-6.748-4.11-11.259-6.792c-19.533-11.611-49.052-29.158-54.669-40.198
	c-3.566-7.01-6.373-21.901-9.347-37.666l-0.421-2.235c-2.746-14.542-5.624-29.359-9.495-40.645l-0.625-1.825
	c-8.524-24.87-22.791-66.495-42.66-94.817c-9.304-13.258-23.532-30.189-37.293-46.561l-1.106-1.316
	c-16.202-19.279-31.342-37.374-37.488-48.331c-12.023-21.434-25.25-56.559-28.883-76.703c-2.787-15.456-7.382-28.918-10.737-38.746
	c-1.229-3.598-2.29-6.71-3.043-9.268c-0.43-0.885-5.017-10.614-1.728-16.152c1.361-2.292,3.851-3.526,7.401-3.668
	C228.602,68.865,229.048,72.033,229.54,76.855L229.54,76.855z M225.986,71.393c-1.246-0.72-3.246-1.025-6.542-0.893
	c-3.093,0.123-5.234,1.148-6.362,3.047c-3.025,5.09,1.75,14.897,1.799,14.995l0.04,0.102c0.745,2.542,1.81,5.658,3.04,9.266
	c3.369,9.868,7.982,23.381,10.787,38.932c3.612,20.03,16.774,54.975,28.74,76.307c6.228,11.102,21.884,29.73,38.46,49.452
	c13.778,16.394,28.025,33.345,37.36,46.65c19.973,28.467,34.275,70.2,42.82,95.133l0.627,1.825
	c4.099,11.95,7.08,27.763,9.963,43.056c2.955,15.674,5.745,30.478,9.23,37.326c5.45,10.712,35.959,28.848,54.187,39.685
	c4.519,2.685,8.42,5.005,11.286,6.808c7.688,4.836,18.161,10.67,28.29,16.31c9.547,5.317,18.564,10.339,24.283,13.996
	c4.556,2.915,8.884,4.313,13.225,4.272c5.357-0.053,9.396-0.592,11.684-1.565c4.305-1.83,6.829-9.658,8.499-14.837
	c0.35-1.09,0.683-2.12,0.991-2.977c0.625-1.734,1.23-3.524,1.814-5.258c1.576-4.669,3.206-9.495,5.456-13.945
	c4.673-9.243,5.206-19.69,1.677-32.873c-3.086-11.53-19.292-13.185-37.063-13.965c-2.303-0.101-5.152-0.21-8.396-0.337
	c-21.508-0.83-61.544-2.378-73.22-6.556c-12.537-4.487-23.82-14.588-30.176-27.02c-0.821-1.606-1.388-3.337-1.934-5.01l-0.077-0.235
	c-3.994-12.22-6.819-25.055-9.553-37.465c-0.632-2.87-1.262-5.734-1.906-8.588c-0.968-4.291-1.887-8.695-2.774-12.954
	c-3.008-14.429-6.118-29.349-11.808-43.07c-2.979-7.19-1.491-14.776-0.053-22.114l0.189-0.96
	c3.633-18.629,0.706-23.448-3.725-30.742c-0.498-0.818-1.01-1.664-1.533-2.56c-4.967-8.519-39.015-42.616-55.286-58.13
	c-11.045-10.53-17.311-28.363-22.839-44.098c-2.285-6.506-4.444-12.65-6.73-17.625l-0.877-1.91
	c-7.147-15.58-11.085-24.163-24.068-37.944c-4.595-4.877-9.127-9.276-13.51-13.53c-8.526-8.278-15.89-15.426-20.353-22.875
	c-2.645-4.412-3.035-8.252-3.35-11.337C228.017,74.405,227.819,72.451,225.986,71.393L225.986,71.393z M548.184,501.383
	c5.721,6.073,3.047,14.499,0.218,23.419c-0.286,0.901-0.573,1.808-0.854,2.713c-3.18,10.319-10.937,20.253-16.798,25.116
	c-6.773,5.62-18.088,1.25-25.575-1.641c-2.18-0.842-5.438-2.562-9.242-4.757c-8.859-5.115-20.676-12.817-28.707-18.054
	c-2.08-1.354-3.915-2.55-5.393-3.503l-0.017-0.01c-9.594-5.539-19.095-11.74-28.285-17.738c-4.766-3.109-9.694-6.326-14.565-9.403
	c-3.932-2.485-8.685-6.417-9.007-11.045c-0.19-2.734,1.174-5.357,4.054-7.797c5.09-4.312,15.854,0.174,22.285,2.853
	c0.693,0.289,1.33,0.554,1.898,0.782c7.979,2.716,18.146,4.459,30.214,5.18c6.299,0.377,13.131,0.127,20.365-0.138
	C509.705,486.592,533.428,485.722,548.184,501.383L548.184,501.383z M538.667,495.476c-14.134-8.159-32.914-7.47-49.846-6.85
	c-7.267,0.267-14.127,0.518-20.487,0.138c-12.19-0.729-22.472-2.496-30.563-5.251l-0.031-0.012c-0.576-0.23-1.224-0.5-1.931-0.795
	c-5.758-2.4-16.479-6.866-20.978-3.056c-2.555,2.163-3.769,4.432-3.608,6.74c0.285,4.101,4.736,7.734,8.42,10.063
	c4.881,3.083,9.813,6.302,14.582,9.414c9.181,5.993,18.675,12.188,28.269,17.728c1.506,0.971,3.344,2.167,5.425,3.524
	c11.438,7.456,30.585,19.936,37.714,22.688c9.162,3.538,18.587,6.597,24.311,1.849c5.72-4.747,13.292-14.444,16.396-24.515
	c0.28-0.909,0.568-1.817,0.855-2.723c2.715-8.555,5.277-16.636,0.069-22.166C544.67,499.503,541.78,497.273,538.667,495.476z
	 M537.347,508.248c2.196,6.072,1.252,14.386-2.526,22.24l-0.467,0.974c-2.987,6.247-5.81,12.149-12.92,11.34
	c-13.92-1.584-26.005-5.477-37.556-12.145c-1.773-1.024-3.531-2.111-5.283-3.269c-7.266-4.792-12.725-8.613-17.702-12.389
	c-0.621-0.472-1.332-0.973-2.084-1.503c-2.893-2.04-6.493-4.579-7.922-7.6c-1.045-2.214-0.548-3.87,0.055-4.872
	c1.123-1.873,3.586-3.078,6.585-3.222c4.565-0.22,10.097-0.501,10.342-0.513c0.377-0.03,12.096-0.948,21.868-1.961
	c9.874-1.024,20.868-0.316,28.694,1.849l1.185,0.325C526.819,499.479,534.985,501.719,537.347,508.248L537.347,508.248z
	 M530.871,502.891c-3.253-1.878-7.462-3.031-11.592-4.165l-1.187-0.325c-7.684-2.125-18.5-2.818-28.227-1.811l-0.746,0.078
	c-9.74,0.995-21.047,1.878-21.163,1.887l-0.017,0.001c0,0-5.683,0.29-10.354,0.515c-2.576,0.124-4.654,1.098-5.56,2.606
	c-0.635,1.057-0.633,2.328,0.006,3.679c1.285,2.72,4.734,5.151,7.507,7.105c0.761,0.536,1.479,1.044,2.12,1.53
	c4.953,3.758,10.39,7.563,17.632,12.34c12.996,8.572,26.436,13.408,42.286,15.212c6.212,0.707,8.604-4.296,11.632-10.628
	l0.469-0.976c3.633-7.555,4.56-15.501,2.477-21.261C535.235,506.137,533.325,504.308,530.871,502.891L530.871,502.891z
	 M523.908,508.062c3.38,2.826,4.125,6.601,4.914,10.596c1.249,6.324-4.57,12.746-13.535,14.937
	c-6.826,1.67-18.63-3.138-26.282-7.556c-2.56-1.479-4.654-2.912-5.943-4.046c-5.343-4.696-4.961-7.7-2.495-11.3
	c2.254-3.292,6.652-4.188,13.019-4.567c2.796-0.167,5.607-0.695,8.326-1.205c1.659-0.312,3.375-0.634,5.05-0.866
	C512.117,503.343,518.159,503.264,523.908,508.062z M507.134,505.31c-1.644,0.228-3.346,0.547-4.99,0.855
	c-2.757,0.518-5.606,1.054-8.483,1.225c-5.984,0.356-10.087,1.152-12.048,4.018c-1.907,2.787-2.86,5.109,2.285,9.633
	c5.618,4.939,23.004,13.3,31.089,11.323c8.158-1.994,13.689-7.907,12.592-13.46c-0.743-3.771-1.446-7.33-4.484-9.868
	C517.744,504.563,512.261,504.602,507.134,505.31L507.134,505.31z"/>
</svg>
