<svg width="235.648" height="93.07" viewBox="0 0 235.648 93.07" xmlns="http://www.w3.org/2000/svg"><g id="svgGroup" stroke-linecap="round" fill-rule="evenodd" font-size="9pt" stroke="#252f39" stroke-width="0.25mm" fill="#252f39" style="stroke:#252f39;stroke-width:0.25mm;fill:#252f39"><path d="M 16.895 92.285 L 0 92.285 L 0 6.348 L 22.705 6.348 A 25.939 25.939 0 0 1 27.257 6.723 Q 29.765 7.17 31.775 8.152 A 13.369 13.369 0 0 1 34.009 9.521 Q 38.184 12.695 39.99 18.555 A 37.871 37.871 0 0 1 41.257 24.326 Q 41.797 28.087 41.797 32.52 A 68.08 68.08 0 0 1 41.517 38.859 Q 41.228 41.952 40.637 44.643 A 38.022 38.022 0 0 1 40.283 46.118 A 20.039 20.039 0 0 1 38.585 50.535 A 14.865 14.865 0 0 1 34.888 55.078 A 12.827 12.827 0 0 1 30.535 57.356 Q 28.673 57.937 26.427 58.141 A 28.191 28.191 0 0 1 23.877 58.252 L 16.895 58.252 L 16.895 92.285 Z M 138.086 92.285 L 121.191 92.285 L 121.191 6.348 L 143.896 6.348 A 25.939 25.939 0 0 1 148.449 6.723 Q 150.956 7.17 152.967 8.152 A 13.369 13.369 0 0 1 155.2 9.521 Q 159.375 12.695 161.182 18.555 A 37.871 37.871 0 0 1 162.448 24.326 Q 162.988 28.087 162.988 32.52 A 68.08 68.08 0 0 1 162.709 38.859 Q 162.419 41.952 161.829 44.643 A 38.022 38.022 0 0 1 161.475 46.118 A 20.039 20.039 0 0 1 159.776 50.535 A 14.865 14.865 0 0 1 156.079 55.078 A 12.827 12.827 0 0 1 151.726 57.356 Q 149.865 57.937 147.618 58.141 A 28.191 28.191 0 0 1 145.068 58.252 L 138.086 58.252 L 138.086 92.285 Z M 70.654 70.361 L 70.654 40.967 A 29.9 29.9 0 0 1 71.438 33.928 A 20.66 20.66 0 0 1 76.465 24.438 A 19.111 19.111 0 0 1 86.833 18.806 A 28.319 28.319 0 0 1 92.529 18.262 A 27.658 27.658 0 0 1 99.218 19.025 A 18.893 18.893 0 0 1 108.643 24.438 A 20.826 20.826 0 0 1 113.813 34.553 A 30.466 30.466 0 0 1 114.453 40.967 L 114.453 70.361 A 33.976 33.976 0 0 1 113.404 79.208 Q 110.273 90.788 97.799 92.692 A 34.974 34.974 0 0 1 92.529 93.066 A 30.241 30.241 0 0 1 83.74 91.901 Q 74.079 88.964 71.551 78.623 A 34.866 34.866 0 0 1 70.654 70.361 Z M 191.846 70.361 L 191.846 40.967 A 29.9 29.9 0 0 1 192.629 33.928 A 20.66 20.66 0 0 1 197.656 24.438 A 19.111 19.111 0 0 1 208.024 18.806 A 28.319 28.319 0 0 1 213.721 18.262 A 27.658 27.658 0 0 1 220.41 19.025 A 18.893 18.893 0 0 1 229.834 24.438 A 20.826 20.826 0 0 1 235.004 34.553 A 30.466 30.466 0 0 1 235.645 40.967 L 235.645 70.361 A 33.976 33.976 0 0 1 234.595 79.208 Q 231.465 90.788 218.99 92.692 A 34.974 34.974 0 0 1 213.721 93.066 A 30.241 30.241 0 0 1 204.931 91.901 Q 195.27 88.964 192.742 78.623 A 34.866 34.866 0 0 1 191.846 70.361 Z M 64.307 92.285 L 46.826 92.285 L 46.826 19.043 L 64.307 19.043 L 64.307 92.285 Z M 185.498 92.285 L 168.018 92.285 L 168.018 19.043 L 185.498 19.043 L 185.498 92.285 Z M 96.631 73.975 L 96.631 38.184 A 14.931 14.931 0 0 0 96.487 36.01 Q 96.096 33.366 94.643 32.378 A 3.668 3.668 0 0 0 92.529 31.787 Q 88.576 31.787 88.433 37.729 A 18.891 18.891 0 0 0 88.428 38.184 L 88.428 73.975 A 10.315 10.315 0 0 0 88.562 75.686 Q 88.785 77.011 89.38 78.003 A 3.14 3.14 0 0 0 91.628 79.514 A 5.081 5.081 0 0 0 92.529 79.59 A 4.755 4.755 0 0 0 93.753 79.443 A 3.087 3.087 0 0 0 95.679 78.003 Q 96.631 76.416 96.631 73.975 Z M 217.822 73.975 L 217.822 38.184 A 14.931 14.931 0 0 0 217.678 36.01 Q 217.287 33.366 215.835 32.378 A 3.668 3.668 0 0 0 213.721 31.787 Q 209.768 31.787 209.625 37.729 A 18.891 18.891 0 0 0 209.619 38.184 L 209.619 73.975 A 10.315 10.315 0 0 0 209.753 75.686 Q 209.976 77.011 210.571 78.003 A 3.14 3.14 0 0 0 212.819 79.514 A 5.081 5.081 0 0 0 213.721 79.59 A 4.755 4.755 0 0 0 214.944 79.443 A 3.087 3.087 0 0 0 216.87 78.003 Q 217.822 76.416 217.822 73.975 Z M 64.307 14.551 L 46.826 14.551 L 46.826 0 L 64.307 0 L 64.307 14.551 Z M 185.498 14.551 L 168.018 14.551 L 168.018 0 L 185.498 0 L 185.498 14.551 Z M 16.895 22.021 L 16.895 42.822 L 17.871 42.822 A 13.028 13.028 0 0 0 19.849 42.684 Q 22.9 42.214 23.73 40.137 A 11.807 11.807 0 0 0 24.297 38.21 Q 24.733 36.155 24.795 33.213 A 47.324 47.324 0 0 0 24.805 32.227 A 36.648 36.648 0 0 0 24.707 29.457 Q 24.508 26.841 23.903 25.085 A 9.745 9.745 0 0 0 23.755 24.683 A 3.892 3.892 0 0 0 21.107 22.324 Q 20.115 22.021 18.799 22.021 L 16.895 22.021 Z M 138.086 22.021 L 138.086 42.822 L 139.063 42.822 A 13.028 13.028 0 0 0 141.04 42.684 Q 144.091 42.214 144.922 40.137 A 11.807 11.807 0 0 0 145.488 38.21 Q 145.925 36.155 145.986 33.213 A 47.324 47.324 0 0 0 145.996 32.227 A 36.648 36.648 0 0 0 145.899 29.457 Q 145.7 26.841 145.095 25.085 A 9.745 9.745 0 0 0 144.946 24.683 A 3.892 3.892 0 0 0 142.298 22.324 Q 141.306 22.021 139.99 22.021 L 138.086 22.021 Z" vector-effect="non-scaling-stroke"/></g></svg>